<mxfile host="app.diagrams.net" modified="2020-12-09T20:21:18.142Z" agent="5.0 (Windows NT 10.0; Win64; x64) AppleWebKit/537.36 (KHTML, like Gecko) Chrome/87.0.4280.88 Safari/537.36" etag="lqsORcBe7lFwAdWjvGu2" version="13.10.4" type="github">
  <diagram id="YYhD71GSfdkhSg4LdyBN" name="Page-1">
    <mxGraphModel dx="1422" dy="794" grid="1" gridSize="10" guides="1" tooltips="1" connect="1" arrows="1" fold="1" page="1" pageScale="1" pageWidth="827" pageHeight="1169" math="0" shadow="0">
      <root>
        <mxCell id="0" />
        <mxCell id="1" parent="0" />
        <mxCell id="_NEotnmEXPinoTVCzVwU-2" value="Otrzymuje" style="rhombus;whiteSpace=wrap;html=1;" parent="1" vertex="1">
          <mxGeometry x="80" y="190" width="80" height="80" as="geometry" />
        </mxCell>
        <mxCell id="_NEotnmEXPinoTVCzVwU-4" value="Klient" style="rounded=0;whiteSpace=wrap;html=1;" parent="1" vertex="1">
          <mxGeometry x="140" y="90" width="120" height="60" as="geometry" />
        </mxCell>
        <mxCell id="_NEotnmEXPinoTVCzVwU-5" value="nadaje" style="rhombus;whiteSpace=wrap;html=1;" parent="1" vertex="1">
          <mxGeometry x="164" y="190" width="80" height="80" as="geometry" />
        </mxCell>
        <mxCell id="_NEotnmEXPinoTVCzVwU-6" value="" style="endArrow=none;html=1;entryX=0.5;entryY=1;entryDx=0;entryDy=0;exitX=0.5;exitY=0;exitDx=0;exitDy=0;" parent="1" source="_NEotnmEXPinoTVCzVwU-5" target="_NEotnmEXPinoTVCzVwU-4" edge="1">
          <mxGeometry width="50" height="50" relative="1" as="geometry">
            <mxPoint x="240" y="330" as="sourcePoint" />
            <mxPoint x="290" y="280" as="targetPoint" />
          </mxGeometry>
        </mxCell>
        <mxCell id="_NEotnmEXPinoTVCzVwU-7" value="List przewozowy" style="rounded=0;whiteSpace=wrap;html=1;" parent="1" vertex="1">
          <mxGeometry x="119" y="290" width="120" height="60" as="geometry" />
        </mxCell>
        <mxCell id="_NEotnmEXPinoTVCzVwU-8" value="zawiera" style="rhombus;whiteSpace=wrap;html=1;" parent="1" vertex="1">
          <mxGeometry x="284" y="190" width="80" height="80" as="geometry" />
        </mxCell>
        <mxCell id="_NEotnmEXPinoTVCzVwU-9" value="Paczka" style="rounded=0;whiteSpace=wrap;html=1;" parent="1" vertex="1">
          <mxGeometry x="354" y="100" width="120" height="60" as="geometry" />
        </mxCell>
        <mxCell id="_NEotnmEXPinoTVCzVwU-10" value="" style="endArrow=none;html=1;entryX=0.5;entryY=1;entryDx=0;entryDy=0;exitX=0.5;exitY=0;exitDx=0;exitDy=0;" parent="1" source="_NEotnmEXPinoTVCzVwU-8" target="_NEotnmEXPinoTVCzVwU-9" edge="1">
          <mxGeometry width="50" height="50" relative="1" as="geometry">
            <mxPoint x="240" y="230" as="sourcePoint" />
            <mxPoint x="290" y="180" as="targetPoint" />
          </mxGeometry>
        </mxCell>
        <mxCell id="_NEotnmEXPinoTVCzVwU-11" value="" style="endArrow=none;html=1;entryX=0.5;entryY=1;entryDx=0;entryDy=0;exitX=0;exitY=0;exitDx=0;exitDy=0;" parent="1" source="_NEotnmEXPinoTVCzVwU-7" target="_NEotnmEXPinoTVCzVwU-2" edge="1">
          <mxGeometry width="50" height="50" relative="1" as="geometry">
            <mxPoint x="240" y="230" as="sourcePoint" />
            <mxPoint x="290" y="180" as="targetPoint" />
          </mxGeometry>
        </mxCell>
        <mxCell id="_NEotnmEXPinoTVCzVwU-12" value="" style="endArrow=none;html=1;entryX=0.5;entryY=1;entryDx=0;entryDy=0;exitX=0.5;exitY=0;exitDx=0;exitDy=0;" parent="1" source="_NEotnmEXPinoTVCzVwU-7" target="_NEotnmEXPinoTVCzVwU-5" edge="1">
          <mxGeometry width="50" height="50" relative="1" as="geometry">
            <mxPoint x="240" y="230" as="sourcePoint" />
            <mxPoint x="290" y="180" as="targetPoint" />
          </mxGeometry>
        </mxCell>
        <mxCell id="_NEotnmEXPinoTVCzVwU-13" value="" style="endArrow=none;html=1;entryX=0.5;entryY=1;entryDx=0;entryDy=0;exitX=1;exitY=0;exitDx=0;exitDy=0;" parent="1" source="_NEotnmEXPinoTVCzVwU-7" target="_NEotnmEXPinoTVCzVwU-8" edge="1">
          <mxGeometry width="50" height="50" relative="1" as="geometry">
            <mxPoint x="240" y="230" as="sourcePoint" />
            <mxPoint x="290" y="180" as="targetPoint" />
          </mxGeometry>
        </mxCell>
        <mxCell id="_NEotnmEXPinoTVCzVwU-15" value="Pracownik" style="rounded=0;whiteSpace=wrap;html=1;" parent="1" vertex="1">
          <mxGeometry x="540" y="330" width="120" height="60" as="geometry" />
        </mxCell>
        <mxCell id="_NEotnmEXPinoTVCzVwU-18" value="Posiada" style="rhombus;whiteSpace=wrap;html=1;" parent="1" vertex="1">
          <mxGeometry x="640" y="200" width="80" height="80" as="geometry" />
        </mxCell>
        <mxCell id="_NEotnmEXPinoTVCzVwU-19" value="Auto dostawcze" style="rounded=0;whiteSpace=wrap;html=1;" parent="1" vertex="1">
          <mxGeometry x="630" y="120" width="120" height="60" as="geometry" />
        </mxCell>
        <mxCell id="_NEotnmEXPinoTVCzVwU-20" value="" style="endArrow=none;html=1;entryX=0.5;entryY=1;entryDx=0;entryDy=0;exitX=0.5;exitY=0;exitDx=0;exitDy=0;" parent="1" source="_NEotnmEXPinoTVCzVwU-18" target="_NEotnmEXPinoTVCzVwU-19" edge="1">
          <mxGeometry width="50" height="50" relative="1" as="geometry">
            <mxPoint x="500" y="230" as="sourcePoint" />
            <mxPoint x="550" y="180" as="targetPoint" />
          </mxGeometry>
        </mxCell>
        <mxCell id="_NEotnmEXPinoTVCzVwU-21" value="" style="endArrow=none;html=1;entryX=0.5;entryY=1;entryDx=0;entryDy=0;exitX=1;exitY=0;exitDx=0;exitDy=0;" parent="1" source="_NEotnmEXPinoTVCzVwU-15" target="_NEotnmEXPinoTVCzVwU-18" edge="1">
          <mxGeometry width="50" height="50" relative="1" as="geometry">
            <mxPoint x="500" y="230" as="sourcePoint" />
            <mxPoint x="550" y="180" as="targetPoint" />
          </mxGeometry>
        </mxCell>
        <mxCell id="_NEotnmEXPinoTVCzVwU-25" value="Pracuje w" style="rhombus;whiteSpace=wrap;html=1;" parent="1" vertex="1">
          <mxGeometry x="565" y="490" width="80" height="80" as="geometry" />
        </mxCell>
        <mxCell id="_NEotnmEXPinoTVCzVwU-26" value="magazyn" style="rounded=0;whiteSpace=wrap;html=1;" parent="1" vertex="1">
          <mxGeometry x="474" y="600" width="120" height="60" as="geometry" />
        </mxCell>
        <mxCell id="_NEotnmEXPinoTVCzVwU-27" value="" style="endArrow=none;html=1;exitX=0.5;exitY=0;exitDx=0;exitDy=0;entryX=0.113;entryY=0.986;entryDx=0;entryDy=0;entryPerimeter=0;" parent="1" source="_NEotnmEXPinoTVCzVwU-25" target="_NEotnmEXPinoTVCzVwU-15" edge="1">
          <mxGeometry width="50" height="50" relative="1" as="geometry">
            <mxPoint x="420" y="530" as="sourcePoint" />
            <mxPoint x="720" y="460" as="targetPoint" />
          </mxGeometry>
        </mxCell>
        <mxCell id="_NEotnmEXPinoTVCzVwU-28" value="" style="endArrow=none;html=1;entryX=0.5;entryY=1;entryDx=0;entryDy=0;exitX=0.5;exitY=0;exitDx=0;exitDy=0;" parent="1" source="_NEotnmEXPinoTVCzVwU-26" target="_NEotnmEXPinoTVCzVwU-25" edge="1">
          <mxGeometry width="50" height="50" relative="1" as="geometry">
            <mxPoint x="420" y="530" as="sourcePoint" />
            <mxPoint x="470" y="480" as="targetPoint" />
          </mxGeometry>
        </mxCell>
        <mxCell id="_NEotnmEXPinoTVCzVwU-40" value="Region" style="rounded=0;whiteSpace=wrap;html=1;" parent="1" vertex="1">
          <mxGeometry x="124" y="625" width="120" height="60" as="geometry" />
        </mxCell>
        <mxCell id="_NEotnmEXPinoTVCzVwU-42" value="obsÅ‚uguje" style="rhombus;whiteSpace=wrap;html=1;" parent="1" vertex="1">
          <mxGeometry x="354" y="615" width="80" height="80" as="geometry" />
        </mxCell>
        <mxCell id="_NEotnmEXPinoTVCzVwU-43" value="" style="endArrow=none;html=1;exitX=1;exitY=0.5;exitDx=0;exitDy=0;entryX=0;entryY=0.5;entryDx=0;entryDy=0;" parent="1" source="_NEotnmEXPinoTVCzVwU-40" target="_NEotnmEXPinoTVCzVwU-42" edge="1">
          <mxGeometry width="50" height="50" relative="1" as="geometry">
            <mxPoint x="280" y="530" as="sourcePoint" />
            <mxPoint x="330" y="480" as="targetPoint" />
          </mxGeometry>
        </mxCell>
        <mxCell id="_NEotnmEXPinoTVCzVwU-44" value="" style="endArrow=none;html=1;exitX=1;exitY=0.5;exitDx=0;exitDy=0;entryX=0;entryY=0.5;entryDx=0;entryDy=0;" parent="1" source="_NEotnmEXPinoTVCzVwU-42" target="_NEotnmEXPinoTVCzVwU-26" edge="1">
          <mxGeometry width="50" height="50" relative="1" as="geometry">
            <mxPoint x="280" y="530" as="sourcePoint" />
            <mxPoint x="330" y="480" as="targetPoint" />
          </mxGeometry>
        </mxCell>
        <mxCell id="bGgNWLssVG6uiogLBOGS-1" value="Id" style="ellipse;whiteSpace=wrap;html=1;" parent="1" vertex="1">
          <mxGeometry x="55" y="110" width="70" height="40" as="geometry" />
        </mxCell>
        <mxCell id="bGgNWLssVG6uiogLBOGS-2" value="Dane adresowe" style="ellipse;whiteSpace=wrap;html=1;" parent="1" vertex="1">
          <mxGeometry x="60" y="60" width="70" height="40" as="geometry" />
        </mxCell>
        <mxCell id="bGgNWLssVG6uiogLBOGS-3" value="Imie, nazwisko" style="ellipse;whiteSpace=wrap;html=1;" parent="1" vertex="1">
          <mxGeometry x="130" y="40" width="70" height="40" as="geometry" />
        </mxCell>
        <mxCell id="bGgNWLssVG6uiogLBOGS-4" value="" style="endArrow=none;html=1;exitX=0.5;exitY=0;exitDx=0;exitDy=0;entryX=0.458;entryY=1.014;entryDx=0;entryDy=0;entryPerimeter=0;" parent="1" source="_NEotnmEXPinoTVCzVwU-2" target="_NEotnmEXPinoTVCzVwU-4" edge="1">
          <mxGeometry width="50" height="50" relative="1" as="geometry">
            <mxPoint x="190" y="180" as="sourcePoint" />
            <mxPoint x="240" y="130" as="targetPoint" />
          </mxGeometry>
        </mxCell>
        <mxCell id="bGgNWLssVG6uiogLBOGS-5" value="Typ" style="ellipse;whiteSpace=wrap;html=1;" parent="1" vertex="1">
          <mxGeometry x="214" y="40" width="70" height="40" as="geometry" />
        </mxCell>
        <mxCell id="bGgNWLssVG6uiogLBOGS-10" value="Wymiary" style="ellipse;whiteSpace=wrap;html=1;" parent="1" vertex="1">
          <mxGeometry x="334" y="50" width="70" height="40" as="geometry" />
        </mxCell>
        <mxCell id="bGgNWLssVG6uiogLBOGS-11" value="CiÄ™Å¼ar" style="ellipse;whiteSpace=wrap;html=1;" parent="1" vertex="1">
          <mxGeometry x="404" y="50" width="70" height="40" as="geometry" />
        </mxCell>
        <mxCell id="bGgNWLssVG6uiogLBOGS-12" value="typ" style="ellipse;whiteSpace=wrap;html=1;" parent="1" vertex="1">
          <mxGeometry x="474" y="60" width="70" height="40" as="geometry" />
        </mxCell>
        <mxCell id="5yViiU8TEtJEwyE6yCjg-1" style="edgeStyle=orthogonalEdgeStyle;rounded=0;orthogonalLoop=1;jettySize=auto;html=1;exitX=0.5;exitY=1;exitDx=0;exitDy=0;" edge="1" parent="1" source="bGgNWLssVG6uiogLBOGS-13" target="bGgNWLssVG6uiogLBOGS-14">
          <mxGeometry relative="1" as="geometry" />
        </mxCell>
        <mxCell id="bGgNWLssVG6uiogLBOGS-13" value="id" style="ellipse;whiteSpace=wrap;html=1;" parent="1" vertex="1">
          <mxGeometry x="480" y="100" width="70" height="40" as="geometry" />
        </mxCell>
        <mxCell id="bGgNWLssVG6uiogLBOGS-14" value="Id_list" style="ellipse;whiteSpace=wrap;html=1;" parent="1" vertex="1">
          <mxGeometry x="480" y="140" width="70" height="40" as="geometry" />
        </mxCell>
        <mxCell id="bGgNWLssVG6uiogLBOGS-15" value="Id" style="ellipse;whiteSpace=wrap;html=1;" parent="1" vertex="1">
          <mxGeometry x="40" y="310" width="70" height="40" as="geometry" />
        </mxCell>
        <mxCell id="bGgNWLssVG6uiogLBOGS-16" value="Id_nadawcy" style="ellipse;whiteSpace=wrap;html=1;" parent="1" vertex="1">
          <mxGeometry x="80" y="360" width="70" height="40" as="geometry" />
        </mxCell>
        <mxCell id="bGgNWLssVG6uiogLBOGS-17" value="Id_odbiorcy" style="ellipse;whiteSpace=wrap;html=1;" parent="1" vertex="1">
          <mxGeometry x="160" y="360" width="70" height="40" as="geometry" />
        </mxCell>
        <mxCell id="bGgNWLssVG6uiogLBOGS-20" value="jest obslugiwany" style="rhombus;whiteSpace=wrap;html=1;" parent="1" vertex="1">
          <mxGeometry x="345" y="300" width="80" height="80" as="geometry" />
        </mxCell>
        <mxCell id="bGgNWLssVG6uiogLBOGS-22" value="" style="endArrow=none;html=1;entryX=0;entryY=0.5;entryDx=0;entryDy=0;exitX=1;exitY=0.5;exitDx=0;exitDy=0;" parent="1" source="_NEotnmEXPinoTVCzVwU-7" target="bGgNWLssVG6uiogLBOGS-20" edge="1">
          <mxGeometry width="50" height="50" relative="1" as="geometry">
            <mxPoint x="450" y="380" as="sourcePoint" />
            <mxPoint x="500" y="330" as="targetPoint" />
          </mxGeometry>
        </mxCell>
        <mxCell id="bGgNWLssVG6uiogLBOGS-29" value="numer rejestracyjny" style="ellipse;whiteSpace=wrap;html=1;" parent="1" vertex="1">
          <mxGeometry x="610" y="70" width="70" height="40" as="geometry" />
        </mxCell>
        <mxCell id="bGgNWLssVG6uiogLBOGS-30" value="model" style="ellipse;whiteSpace=wrap;html=1;" parent="1" vertex="1">
          <mxGeometry x="680" y="70" width="70" height="40" as="geometry" />
        </mxCell>
        <mxCell id="bGgNWLssVG6uiogLBOGS-31" value="Imie i nazwisko" style="ellipse;whiteSpace=wrap;html=1;" parent="1" vertex="1">
          <mxGeometry x="520" y="280" width="70" height="40" as="geometry" />
        </mxCell>
        <mxCell id="bGgNWLssVG6uiogLBOGS-32" value="Data zatrudnienia" style="ellipse;whiteSpace=wrap;html=1;" parent="1" vertex="1">
          <mxGeometry x="670" y="350" width="70" height="40" as="geometry" />
        </mxCell>
        <mxCell id="bGgNWLssVG6uiogLBOGS-34" value="Stanowisko" style="ellipse;whiteSpace=wrap;html=1;" parent="1" vertex="1">
          <mxGeometry x="670" y="390" width="70" height="40" as="geometry" />
        </mxCell>
        <mxCell id="bGgNWLssVG6uiogLBOGS-35" value="numer telefonu" style="ellipse;whiteSpace=wrap;html=1;" parent="1" vertex="1">
          <mxGeometry x="460" y="310" width="70" height="40" as="geometry" />
        </mxCell>
        <mxCell id="bGgNWLssVG6uiogLBOGS-36" value="Id" style="ellipse;whiteSpace=wrap;html=1;" parent="1" vertex="1">
          <mxGeometry x="590" y="280" width="70" height="40" as="geometry" />
        </mxCell>
        <mxCell id="bGgNWLssVG6uiogLBOGS-37" value="id_magazyn" style="ellipse;whiteSpace=wrap;html=1;" parent="1" vertex="1">
          <mxGeometry x="600" y="400" width="70" height="40" as="geometry" />
        </mxCell>
        <mxCell id="bGgNWLssVG6uiogLBOGS-38" value="id_obszar_dzialania" style="ellipse;whiteSpace=wrap;html=1;" parent="1" vertex="1">
          <mxGeometry x="670" y="310" width="70" height="40" as="geometry" />
        </mxCell>
        <mxCell id="bGgNWLssVG6uiogLBOGS-39" value="id" style="ellipse;whiteSpace=wrap;html=1;" parent="1" vertex="1">
          <mxGeometry x="474" y="670" width="70" height="40" as="geometry" />
        </mxCell>
        <mxCell id="bGgNWLssVG6uiogLBOGS-40" value="id_region" style="ellipse;whiteSpace=wrap;html=1;" parent="1" vertex="1">
          <mxGeometry x="550" y="670" width="70" height="40" as="geometry" />
        </mxCell>
        <mxCell id="bGgNWLssVG6uiogLBOGS-41" value="nazwa" style="ellipse;whiteSpace=wrap;html=1;" parent="1" vertex="1">
          <mxGeometry x="600" y="630" width="70" height="40" as="geometry" />
        </mxCell>
        <mxCell id="bGgNWLssVG6uiogLBOGS-42" value="adres" style="ellipse;whiteSpace=wrap;html=1;" parent="1" vertex="1">
          <mxGeometry x="600" y="585" width="70" height="40" as="geometry" />
        </mxCell>
        <mxCell id="bGgNWLssVG6uiogLBOGS-43" value="id" style="ellipse;whiteSpace=wrap;html=1;" parent="1" vertex="1">
          <mxGeometry x="130" y="695" width="70" height="40" as="geometry" />
        </mxCell>
        <mxCell id="bGgNWLssVG6uiogLBOGS-44" value="nazwa" style="ellipse;whiteSpace=wrap;html=1;" parent="1" vertex="1">
          <mxGeometry x="205" y="695" width="70" height="40" as="geometry" />
        </mxCell>
        <mxCell id="bGgNWLssVG6uiogLBOGS-54" value="&lt;font style=&quot;font-size: 22px&quot;&gt;Mariusz KrzyÅ¼opolski&lt;br&gt;s21544&lt;br&gt;FIrma Kurierska&lt;/font&gt;" style="text;html=1;resizable=0;autosize=1;align=center;verticalAlign=middle;points=[];fillColor=none;strokeColor=none;rounded=0;" parent="1" vertex="1">
          <mxGeometry x="275" y="1040" width="220" height="60" as="geometry" />
        </mxCell>
        <mxCell id="5yViiU8TEtJEwyE6yCjg-2" value="" style="endArrow=none;html=1;entryX=1;entryY=0.5;entryDx=0;entryDy=0;exitX=0;exitY=0.5;exitDx=0;exitDy=0;" edge="1" parent="1" source="_NEotnmEXPinoTVCzVwU-15" target="bGgNWLssVG6uiogLBOGS-20">
          <mxGeometry width="50" height="50" relative="1" as="geometry">
            <mxPoint x="480" y="340" as="sourcePoint" />
            <mxPoint x="440" y="480" as="targetPoint" />
          </mxGeometry>
        </mxCell>
        <mxCell id="5yViiU8TEtJEwyE6yCjg-4" value="id_pracownika" style="ellipse;whiteSpace=wrap;html=1;" vertex="1" parent="1">
          <mxGeometry x="240" y="360" width="70" height="40" as="geometry" />
        </mxCell>
      </root>
    </mxGraphModel>
  </diagram>
</mxfile>
